<svg height="580" viewBox="0 0 580 580" width="580" xmlns="http://www.w3.org/2000/svg"><g fill="none" fill-rule="evenodd"><path d="m175.5 499.1h252.8c-13.7-10.1-23.3-25.3-26-42.8h-200.9c-2.6 17.5-12.2 32.7-25.9 42.8z"/><g fill-rule="nonzero"><path d="m202.3 446.3c0 3.4-.3 6.7-.8 10h168c-5.5 0-10-4.5-10-10v-10h-158c.5 3.3.8 6.6.8 10zm-131.1 0c0-3.4.3-6.7.8-10h-9.8c-3.8 0-6.8-3.1-6.8-6.8v-71.1l195.1-195.1h102.2c3.8 0 6.8 3.1 6.8 6.8v52.8c0-5.5 4.5-10 10-10h10v-42.8c0-14.8-12-26.8-26.8-26.8h-290.6c-14.8 0-26.8 12-26.8 26.8v259.4c0 14.8 12 26.8 26.8 26.8h9.8c-.5-3.3-.7-6.6-.7-10zm-15.9-110.9v-165.3c0-3.8 3.1-6.8 6.8-6.8h165.3zm143.4 89.5 160.8-160.8v-23l-168.5 168.5c3.2 4.7 5.8 9.9 7.7 15.3z" fill="#50e3c2"/><g fill="#9013fe"><path d="m500.1 327.7c0-4.5-3.6-8.1-8.1-8.1h-65.4v-53.9c0-4.5-3.6-8.1-8.1-8.1s-8.1 3.6-8.1 8.1v62c0 4.5 3.6 8.1 8.1 8.1h73.5c4.5.1 8.1-3.6 8.1-8.1zm-326.2-219.4c0-4.5-3.6-8.1-8.1-8.1h-153.5c-4.5 0-8.1 3.6-8.1 8.1s3.6 8.1 8.1 8.1h153.5c4.5 0 8.1-3.6 8.1-8.1zm-59.8-29.9h93.3c4.5 0 8.1-3.6 8.1-8.1s-3.6-8.1-8.1-8.1h-93.3c-4.5 0-8.1 3.6-8.1 8.1s3.6 8.1 8.1 8.1z"/><path d="m566.5 499.1h-60.6c13.7-10.1 23.3-25.3 26-42.8h16c14.8 0 26.8-12 26.8-26.8v-89c0-7.6-3.2-14.9-8.9-20l-112.2-100.8c-4.9-4.4-11.2-6.8-17.8-6.8h-66.3c-5.5 0-10 4.5-10 10v223.4c0 5.5 4.5 10 10 10h32.9c2.7 17.5 12.3 32.7 26 42.8h-252.9c13.7-10.1 23.3-25.3 26-42.8.5-3.3.8-6.6.8-10s-.3-6.7-.8-10c-.6-3.9-1.6-7.7-2.8-11.4-1.9-5.5-4.5-10.6-7.7-15.3-11.8-17.4-31.7-28.9-54.3-28.9-32.7 0-59.9 24.1-64.8 55.5-.5 3.3-.8 6.6-.8 10s.3 6.7.8 10c2.7 17.5 12.3 32.7 26 42.8h-66.4c-5.5 0-10 4.5-10 10s4.5 10 10 10h535c5.5 0 10-4.5 10-10s-4.5-9.9-10-9.9zm-187.1-62.8v-203.4h56.3c1.7 0 3.3.6 4.5 1.7l112.2 100.7c1.4 1.3 2.3 3.2 2.3 5.1v89c0 3.8-3.1 6.8-6.8 6.8h-16c-4.8-31.4-32-55.5-64.8-55.5s-59.9 24.1-64.8 55.5h-22.9zm42.2 10c0-25.1 20.4-45.5 45.5-45.5s45.5 20.4 45.5 45.5-20.4 45.5-45.5 45.5-45.5-20.4-45.5-45.5zm-330.4 0c0-25.1 20.4-45.5 45.5-45.5s45.5 20.4 45.5 45.5-20.4 45.5-45.5 45.5-45.5-20.4-45.5-45.5z"/></g></g></g></svg>