<svg height="580" viewBox="0 0 580 580" width="580" xmlns="http://www.w3.org/2000/svg"><g fill="none" fill-rule="evenodd"><path d="m77.4 268.7c0 8.5 7 15.5 15.5 15.5h6.6l-7.6-18-14.5 1.5z"/><g fill-rule="nonzero"><path d="m490.5 162.5c-3.6-17.6-19.3-30.4-37.3-30.4-2.5 0-5.1.3-7.6.8l-20.8 4.2-20 4.1-234.5 47.8c-20.5 4.2-33.8 24.3-29.6 44.8l10.3 50.5h95.3l238.7-48.7 17.3 84.7c2 9.7-4.3 19.2-14 21.2l-58.8 12v12.5h6.2c4.5 0 8.6 1.6 11.8 4.3l44.9-9.2c20.5-4.2 33.8-24.3 29.6-44.8zm-330.2 67.3c-2-9.7 4.3-19.2 14-21.2l275.3-56.1c1.2-.2 2.4-.4 3.6-.4 8.5 0 16 6.1 17.7 14.4l1.5 7.1-310.6 63.3zm10.8 53.2-6.1-30.1 310.6-63.3 6.1 30.1z" fill="#50e3c2"/><g fill="#9013fe"><path d="m429.4 366v-43.7c0-21-17-38-38-38h-270.2l-33.4-79.1c-3.9-9.1.4-19.7 9.6-23.6l258.8-109.4c2.2-.9 4.5-1.4 6.9-1.4 7.3 0 13.8 4.3 16.7 11l25.1 59.4 20-4.1-26.7-63.1c-6-14.1-19.7-23.2-35.1-23.2-5.1 0-10 1-14.7 3l-258.8 109.3c-19.3 8.2-28.4 30.5-20.2 49.8l9.8 23.1c-12.8 5.4-21.7 18-21.7 32.7v222.5c0 21 17 38 38 38h296c21 0 38-17 38-38v-38.7h6.2c10.1 0 18.3-8.2 18.3-18.3v-50c0-5.6-2.5-10.6-6.5-14-3.2-2.7-7.3-4.3-11.8-4.3h-6.3zm8.2 68.2c0 1.1-.9 2-2 2h-119.3c-1.1 0-2-.9-2-2v-50c0-1.1.9-2 2-2h119.2c1.1 0 2 .9 2 2v50zm-46.2 75h-296c-9.9 0-18-8.1-18-18v-190.5c4.7 2.3 9.9 3.6 15.5 3.6h298.5c9.9 0 18 8.1 18 18v43.7h-93c-10.1 0-18.3 8.2-18.3 18.3v50c0 10.1 8.2 18.3 18.3 18.3h93v38.7c0 9.9-8.1 17.9-18 17.9zm-299.5-243 7.6 18h-6.6c-8.5 0-15.5-7-15.5-15.5 0-.4 0-.7.1-1 .4-6 4.2-11 9.5-13.3z"/><path d="m385.3 408.2h-49c-4.5 0-8.1 3.6-8.1 8.1s3.6 8.1 8.1 8.1h49c4.5 0 8.1-3.6 8.1-8.1s-3.6-8.1-8.1-8.1z"/></g></g></g></svg>