<?xml version="1.0" encoding="UTF-8"?>
<svg width="55" height="40" xmlns="http://www.w3.org/2000/svg" xmlns:svg="http://www.w3.org/2000/svg">
 <g>
  <title>Layer 1</title>
  <path id="svg_1" d="m2.348,23.452999c0.088001,-7.785999 6.487,-14.125999 14.263999,-14.125999c7.779999,0 14.18,6.330002 14.265999,14.110001l0.004004,0.015999l0,13.233002l-7.34,0l0,-12.652c-0.046001,-3.990002 -3.153,-7.228001 -6.930002,-7.228001c-3.772998,0 -6.88,3.25 -6.926003,7.240002c0,0.009998 0,9.565998 -0.002003,12.639999l-7.335999,0m92.411008,-12.998001l-2.703003,0" fill="#ffffff"/>
  <path id="svg_4" d="m51.874001,19.952999c-0.110001,-9.827 -8.190002,-17.816999 -18.015999,-17.816l-0.004002,0c-5.184002,0 -9.882,2.233002 -13.18,5.786001c3.279999,0.855 6.165001,2.725 8.299999,5.246998c1.396999,-1.002998 3.080002,-1.591999 4.884003,-1.591999c4.772995,0 8.697998,4.091999 8.75,9.132l0,15.98l9.269997,0l0,-16.716l-0.003998,-0.021999" fill="#B1B3B4"/>
 </g>
</svg>