<svg xmlns="http://www.w3.org/2000/svg" width="175" height="62" viewBox="28.348 21.137 174.928 61.764">
	<path fill="#ffffff" d="M28.348 42.453c.088-7.786 6.487-14.126 14.264-14.126 7.78 0 14.18 6.33 14.266 14.11l.004.016v13.233h-7.34V43.034c-.046-3.99-3.153-7.228-6.93-7.228-3.773 0-6.88 3.25-6.926 7.24 0 .01 0 9.566-.002 12.64h-7.336V42.453zM103.55 55.638v-.94c-1.143.692-2.19 1.206-3.31 1.206-2.275 0-3.618-2.076-3.618-5.494 0-3.417 1.498-5.61 3.8-5.61 1.072 0 2.256.628 3.303 1.23v-.983h2.524V55.64l-2.7-.002zm0-8.13c-1.096-.383-1.476-.45-2.034-.45-1.362 0-2.056 1.072-2.056 3.283 0 2.257.647 3.308 1.99 3.308.512 0 1.004-.09 2.1-.47v-5.67zM150.27 55.638v-.94c-1.138.692-2.187 1.206-3.304 1.206-2.28 0-3.62-2.076-3.62-5.494 0-3.417 1.5-5.61 3.8-5.61 1.074 0 2.254.628 3.304 1.23v-.983h2.524V55.64l-2.703-.002zm0-8.13c-1.09-.383-1.474-.45-2.028-.45-1.365 0-2.057 1.072-2.057 3.283 0 2.257.646 3.308 1.988 3.308.512 0 1.006-.09 2.098-.47v-5.67zM91.24 55.658l-5.653-12.084.112 12.084H83.33v-14.9h3.754l5.65 12.175-.112-12.174h2.37v14.898H91.24zM112.236 55.903c-1.183 0-2.078-.446-2.5-1.25-.27-.536-.357-1.187-.357-2.815v-5.004h-1.788V45.36l1.787-.27v-2.947h2.7v2.902h2.86v1.787h-2.86v4.514c0 1.743 0 1.808.18 2.1.18.312.514.447 1.05.447.468 0 .916-.065 1.744-.27l.334 1.63c-1.297.45-2.28.65-3.152.65zM118 43.213c-.847 0-1.542-.69-1.542-1.54 0-.848.695-1.54 1.54-1.54.85 0 1.522.692 1.522 1.54 0 .848-.67 1.54-1.52 1.54zm-1.362 12.445V45.046h2.702v10.612h-2.702zM126.22 55.858c-3.216 0-5.09-2.01-5.09-5.493 0-3.44 1.896-5.565 5.09-5.565 3.264 0 5.092 1.988 5.092 5.542 0 3.53-1.85 5.516-5.092 5.516zm0-9.136c-1.54 0-2.255 1.14-2.255 3.572 0 2.617.69 3.668 2.276 3.668 1.567 0 2.237-1.05 2.237-3.598 0-2.57-.65-3.642-2.257-3.642zM139.23 55.658v-6.434c0-1.362-.11-2.168-1.476-2.168-.67 0-1.477.136-2.322.426v8.176h-2.705V45.046h2.525v.938c1.562-.825 2.75-1.184 3.816-1.184 1.074 0 1.926.426 2.37 1.142.4.625.493 1.184.493 2.88v6.837h-2.702v-.002zM157.8 39.798v15.86h-2.703v-15.86"/><g fill="#B1B3B4"><path d="M178.23 55.607v-1.105c-1.273.736-2.548 1.186-3.507 1.186-2.28 0-3.6-2.055-3.6-5.473 0-3.306 1.564-5.542 3.845-5.542 1.138 0 2.3.625 3.304 1.162v-.748h1.608v10.52h-1.65zm0-8.7c-1.587-.58-2.077-.715-2.837-.715-1.588 0-2.48 1.36-2.48 3.89 0 2.834.78 4.105 2.368 4.105.693 0 1.406-.154 2.95-.757v-6.522zM167.457 55.025c-.915.448-1.786.582-3.908.582h-3.373v-14.9h2.77c2.525 0 3.396.088 4.267.468 1.207.516 1.854 1.63 1.854 3.105 0 2.01-.873 3.015-2.95 3.42 2.37.266 3.485 1.473 3.485 3.773 0 1.61-.76 2.883-2.146 3.552zm-1.116-12.577c-.6-.357-.98-.402-2.813-.402h-1.562v5.072h1.096c3.237 0 4.222-.627 4.222-2.703-.004-.894-.338-1.587-.94-1.967zm.134 6.367c-.513-.27-1.16-.357-2.477-.357h-2.033v5.808h1.096c1.873 0 2.52-.09 3.19-.403.896-.422 1.433-1.406 1.433-2.61 0-1.14-.45-2.033-1.21-2.438zM188.374 55.607V49.15c0-1.564.09-2.793-1.768-2.793-.892 0-1.986.2-3.082.604v8.647h-1.65v-10.52h1.607v.845c1.522-.714 2.706-1.094 3.644-1.094 1.07 0 1.875.357 2.37 1.028.442.604.532 1.096.532 2.747v6.994h-1.652zM198.55 55.607l-4.847-5.365v5.365h-1.653v-15.86h1.653v9.94l4.713-4.6h1.942l-4.98 4.776 5.273 5.743h-2.1z"/></g><path fill="#B1B3B4" d="M77.874 38.953c-.11-9.827-8.19-17.817-18.016-17.816h-.004c-5.184 0-9.882 2.233-13.18 5.786 3.28.855 6.165 2.725 8.3 5.247 1.397-1.003 3.08-1.592 4.884-1.592 4.773 0 8.698 4.092 8.75 9.132v15.98h9.27V38.974l-.004-.022z"/><path fill="#eaeaea" d="M162.666 65.52c-1.62 0-2.49-1.06-2.49-3.022 0-1.945.906-3.025 2.507-3.025 1.592 0 2.48 1.09 2.48 3.035-.002 1.95-.88 3.013-2.497 3.013zm.024-5.345c-1.02 0-1.547.78-1.547 2.322 0 .756.15 1.447.404 1.812.23.33.643.516 1.135.516 1.02 0 1.512-.746 1.512-2.316 0-1.57-.482-2.335-1.504-2.335zM166.957 60.21v1.812h2.497v.65h-2.497v2.743h-.915V59.55h3.475v.66h-2.56zM175.12 65.212c-.354.15-.67.203-1.602.203h-1.393V59.55h1.31c.987 0 1.32.037 1.665.186.474.202.72.645.72 1.23 0 .794-.352 1.198-1.158 1.348.912.097 1.36.57 1.36 1.468 0 .667-.323 1.176-.902 1.43zm-.52-4.86c-.212-.136-.386-.142-1.01-.142h-.565v1.802h.414c1.144 0 1.487-.218 1.487-.956 0-.32-.108-.574-.328-.703zm.034 2.435c-.193-.1-.42-.13-.932-.13h-.68v2.1h.414c.646 0 .907-.032 1.146-.148.315-.15.49-.494.49-.934 0-.423-.165-.75-.438-.89zM176.86 65.416V59.55h3.552v.66h-2.64v1.812h2.56v.65h-2.56v2.085h2.677v.658h-3.59zM181.18 65.416V59.55h.912v5.207h2.595v.658h-3.508zM186.83 65.52c-1.46 0-2.312-1.09-2.312-3.022 0-1.96.896-3.033 2.487-3.033.476 0 1.027.086 1.82.322l-.142.645c-.668-.146-1.213-.23-1.592-.23-1.09 0-1.606.74-1.606 2.27 0 .782.146 1.423.42 1.813.255.35.58.508 1.1.508.39 0 .8-.078 1.127-.174v-1.974h.87v2.366c-.913.37-1.563.51-2.17.51zM189.92 65.416V59.55h.912v5.865h-.913zM195.802 64.966c-.38.36-.977.556-1.725.556-.816 0-1.52-.298-1.855-.782-.256-.37-.298-.66-.298-1.742V59.55h.913v3.773c0 .96.325 1.48 1.346 1.48.6 0 1.012-.195 1.195-.573.115-.22.15-.512.15-1.08v-3.6h.783v3.475c.002 1.212-.088 1.557-.508 1.94zM202.388 65.416l-.09-5.058-1.572 5.058h-1.02l-1.54-5.058-.113 5.058h-.8l.245-5.865h1.222l1.575 5.112 1.558-5.11h1.222l.202 5.864h-.89z"/><g fill="#B1B3B4"><path d="M82.947 72.488h4.025v.997h-2.997v2.31h2.73v.994h-2.73v2.603h2.997v.998h-4.025V72.49zM93.167 80.39h-.938v-.916h-.02c-.29.654-.987 1.052-1.72 1.052-1.357 0-1.964-.928-1.964-2.478v-3.432h.965v2.987c0 1.35.27 2.003 1.114 2.062 1.102 0 1.596-.974 1.596-2.377v-2.672h.967v5.774zM94.813 74.617h.904v.896h.022c.255-.6.812-1.03 1.367-1.03.287 0 .433.034.64.08v.95c-.178-.08-.372-.104-.536-.104-.862 0-1.43.906-1.43 2.353v2.628h-.968v-5.773zM101.14 74.482c1.596 0 2.668 1.266 2.668 3.02 0 1.652-1.092 3.023-2.667 3.023-1.584 0-2.674-1.37-2.674-3.023 0-1.754 1.07-3.02 2.675-3.02zm0 5.184c1.134 0 1.64-1.133 1.64-2.164 0-1.096-.61-2.16-1.64-2.16-1.04 0-1.645 1.064-1.645 2.16 0 1.03.505 2.164 1.646 2.164zM104.71 79.257c.38.27.927.408 1.205.408.445 0 .988-.203.988-.826 0-1.054-2.274-.962-2.274-2.583 0-1.2.813-1.774 1.853-1.774.45 0 .823.1 1.203.226l-.082.928c-.217-.147-.792-.296-1.02-.296-.494 0-.926.23-.926.7 0 1.183 2.273.843 2.273 2.685 0 1.232-.895 1.8-1.83 1.8-.494 0-.997-.058-1.44-.315l.05-.955zM108.715 81.95c.124.048.288.093.45.093.867 0 1.154-1.313 1.154-1.426 0-.127-.126-.418-.185-.613l-1.78-5.387h1.06l1.41 4.774h.02l1.438-4.773h.98l-1.935 5.897c-.36 1.106-.74 2.387-2.017 2.387-.308 0-.482-.044-.658-.076l.063-.875zM113.86 79.257c.38.27.926.408 1.204.408.442 0 .988-.203.988-.826 0-1.054-2.275-.962-2.275-2.583 0-1.2.813-1.774 1.85-1.774.454 0 .825.1 1.205.226l-.082.928c-.214-.147-.792-.296-1.017-.296-.494 0-.928.23-.928.7 0 1.183 2.275.843 2.275 2.685 0 1.232-.896 1.8-1.832 1.8-.493 0-1-.058-1.44-.315l.053-.955zM121.04 75.475h-1.387v3.157c0 .672.37 1.033.812 1.033.3 0 .516-.103.658-.203v.904c-.216.067-.514.158-.822.158-.997 0-1.614-.52-1.614-1.675v-3.377H117.5v-.857h1.186V73.28l.967-.34v1.676h1.388v.86zM126.278 80.153c-.368.147-.79.372-1.655.372-1.86 0-2.716-1.246-2.716-3.122 0-1.71.976-2.92 2.457-2.92 1.75 0 2.316 1.4 2.316 3.26h-3.746c0 1.142.812 1.923 1.728 1.923.64 0 1.382-.36 1.616-.578v1.065zm-.63-3.204c0-.884-.468-1.608-1.304-1.608-.947 0-1.34.86-1.41 1.607h2.715zM127.967 74.617h.905v.84h.02c.372-.67.895-.975 1.67-.975.603 0 1.21.338 1.488 1.12.36-.826 1.152-1.12 1.626-1.12 1.338 0 1.82.95 1.82 2.205v3.702h-.966v-3.44c0-.717-.155-1.608-.938-1.608-.986 0-1.38 1.064-1.38 2.142v2.907h-.966v-3.438c0-.717-.154-1.61-.938-1.61-.986 0-1.377 1.065-1.377 2.144v2.907h-.968V74.62h.005z"/></g><path fill="none" d="M0-.008h228.705v98.214H0z"/>
</svg>
