<svg height="580" viewBox="0 0 580 580" width="580" xmlns="http://www.w3.org/2000/svg"><g fill="none" fill-rule="evenodd"><path d="m215.1 258-38.5-44.6-3.8 3.3c-1.5 1.3-3.4 2-5.3 2-2.3 0-4.5-1-6.2-2.8l-4.6-5.4 10.9 54.3h51.4l5.5-4.7c-1 .5-2.2.7-3.3.7-2.2 0-4.5-.9-6.1-2.8z"/><g fill-rule="nonzero"><path d="m504.8 208.6-51.5-59.6 5.6-4.9c4.2-3.6 4.6-9.9 1-14.1l-29.7-34.4c-1.7-2-4.2-3.2-6.8-3.4s-5.3.7-7.3 2.4l-48.4 41.8c-.4.7-.9 1.3-1.6 1.8l-139.6 120.7c-.6.5-1.3 1-2 1.3l-5.5 4.7h-51.4l-10.9-54.3-.6-3c-.9-4.4-4.5-7.6-8.9-8h-64.8c-5.5 0-10 4.5-10 10s4.5 10 10 10h55.7l49.6 246c-13.2 6.5-22.4 20.1-22.4 35.8 0 21.9 17.8 39.8 39.8 39.8 18.5 0 34.1-12.7 38.5-29.8h89.2c4.4 17 20 29.6 38.3 29.6 21.9 0 39.6-17.8 39.6-39.6s-17.8-39.6-39.6-39.6c-18.4 0-33.9 12.6-38.3 29.6h-89.2c-4.3-16.4-18.8-28.8-36.3-29.7l-3.9-19.3h193.2c4.1 0 7.8-2.5 9.3-6.3l62.9-157.4c1.2-3.1.9-6.6-1-9.3s-5-4.4-8.3-4.4h-4.6l48.8-42.1c2-1.7 3.2-4.2 3.4-6.8.3-2.9-.6-5.5-2.3-7.5zm-288.9 76.3 5.3 35.5h-42.2l-7.2-35.5zm222.4-149.4-149.8 129.4h-38.9l172.1-148.5zm-30.6 242.1h-39.4l5.4-40.9h50.4zm-55.8 0h-45.2v-40.9h50.6zm-45.1 44.7v-28.5h43l-3.7 28.5zm-54.1 0-4.2-28.5h42v28.5zm-70.4-85.7h41.3l6.1 40.9h-39.1zm50-51.7h58.2v35.5h-52.9zm7.7 51.7h50.5v40.9h-44.4zm66.8-16.2v-35.5h57.4l-4.7 35.5zm-113 73.4h38.2l4.2 28.5h-36.7zm168.6 28.5 3.7-28.5h35.1l-11.4 28.5zm68.2-101.9h-54.7l4.7-35.5h64.3zm-111.5-55.5 119.1-102.8 44.9 52-58.8 50.8zm-94.2 236.4c0 10.9-8.9 19.8-19.8 19.8s-19.8-8.9-19.8-19.8 8.9-19.8 19.8-19.8 19.8 8.9 19.8 19.8zm126.6 0c0-10.8 8.8-19.6 19.6-19.6s19.6 8.8 19.6 19.6-8.8 19.6-19.6 19.6-19.6-8.8-19.6-19.6z" fill="#9013fe"/><path d="m156.1 207.5.6 3 4.6 5.4c1.6 1.9 3.9 2.8 6.2 2.8 1.9 0 3.8-.6 5.3-2l3.8-3.3 38.5 44.6c1.6 1.9 3.9 2.8 6.2 2.8 1.1 0 2.2-.2 3.3-.7.7-.3 1.4-.7 2-1.3l139.7-120.6c.6-.5 1.1-1.1 1.6-1.8.7-1.1 1.1-2.4 1.2-3.7.2-2.1-.5-4.3-2-5.9l-38.5-44.6 3.8-3.3c1.6-1.4 2.6-3.4 2.8-5.6.2-2.1-.5-4.3-2-5.9l-22.4-25.9c-2.9-3.4-8.1-3.8-11.5-.8l-159.5 137.8c-1.6 1.4-2.6 3.4-2.8 5.6-.2 2.1.5 4.3 2 5.9l8.3 9.6c4.3.3 7.9 3.6 8.8 7.9zm147.8-149.2 11.8 13.6-147.4 127.3-11.8-13.6zm-81.8 183-33.2-38.4 127.4-110 33.2 38.4z" fill="#50e3c2"/></g></g></svg>